<?xml version="1.0" standalone="no"?>
<!DOCTYPE svg PUBLIC "-//W3C//DTD SVG 20010904//EN"
 "http://www.w3.org/TR/2001/REC-SVG-20010904/DTD/svg10.dtd">
<svg version="1.0" xmlns="http://www.w3.org/2000/svg"
 width="500.000000pt" height="500.000000pt" viewBox="0 0 500.000000 500.000000"
 preserveAspectRatio="xMidYMid meet">
<metadata>
Created by potrace 1.11, written by Peter Selinger 2001-2013
</metadata>
<g transform="translate(0.000000,500.000000) scale(0.100000,-0.100000)"
fill="#000000" stroke="none">
<path d="M2498 4865 c-2 -2 -39 -5 -83 -8 -412 -30 -762 -238 -937 -557 -65
-118 -99 -255 -102 -410 -7 -289 70 -515 264 -775 53 -71 228 -255 304 -320 6
-5 32 -28 57 -50 73 -64 102 -89 142 -119 20 -16 37 -32 37 -36 0 -5 -39 -29
-86 -55 -365 -197 -652 -469 -804 -761 -39 -73 -92 -226 -104 -294 -3 -19 -9
-53 -14 -75 -4 -22 -6 -114 -6 -205 1 -144 4 -177 26 -260 48 -177 123 -307
252 -436 78 -78 187 -159 273 -202 107 -55 306 -119 419 -136 22 -4 51 -9 64
-12 45 -10 394 -13 465 -4 417 55 740 230 953 514 100 132 186 345 209 516 12
84 8 338 -6 405 -44 214 -131 389 -292 590 -96 119 -257 261 -539 475 -47 36
-87 67 -90 71 -3 3 -26 20 -52 39 -27 18 -48 36 -48 39 0 3 17 17 38 31 101
68 268 206 368 305 274 272 395 523 397 825 2 171 -13 256 -68 377 -45 98 -86
156 -164 233 -187 186 -444 281 -793 294 -43 1 -79 2 -80 1z m107 -130 c299
-54 486 -376 485 -838 0 -73 -2 -143 -4 -157 -3 -14 -7 -52 -10 -85 -8 -78
-48 -243 -81 -331 -52 -139 -143 -285 -247 -396 l-53 -58 -60 46 c-316 243
-472 395 -582 567 -125 195 -174 355 -177 577 -4 217 76 419 215 544 63 57
174 112 259 130 66 13 183 14 255 1z m-225 -2299 c134 -108 333 -277 419 -355
211 -192 390 -464 450 -681 31 -114 36 -162 35 -325 -2 -171 -20 -258 -80
-385 -127 -270 -395 -432 -714 -433 -318 -2 -533 150 -660 466 -34 84 -76 246
-85 327 -4 30 -8 69 -11 85 -5 39 -5 334 0 360 2 11 7 47 10 80 9 79 51 250
82 331 57 152 148 301 255 419 75 82 199 186 213 178 6 -4 45 -34 86 -67z"/>
</g>
</svg>
